<svg width="23" height="13" viewBox="0 0 23 13" fill="none" xmlns="http://www.w3.org/2000/svg">
<path d="M12.9792 9.88432L6.71698 12.1889V9.98113V9.76415H6.5H1.89334C1.00257 9.76415 0.303018 9.00113 0.380185 8.1137L0.946223 1.60427C1.01447 0.819384 1.67153 0.216981 2.45938 0.216981H21.1067C21.9974 0.216981 22.697 0.980006 22.6198 1.86743L22.0538 8.37686C21.9855 9.16175 21.3285 9.76415 20.5406 9.76415H13.6536C13.4235 9.76415 13.1951 9.80483 12.9792 9.88432Z" fill="url(#paint0_linear_317_713)" stroke="#FFAE9A" stroke-width="0.433962"/>
<path d="M7.22123 4.39218H7.28198C7.39192 4.28224 7.51922 4.18098 7.66387 4.0884C7.78538 4.0074 7.93003 3.93507 8.09783 3.87142C8.26563 3.80778 8.45368 3.77595 8.66198 3.77595C8.96286 3.77595 9.21167 3.85406 9.4084 4.01029C9.60513 4.16073 9.70349 4.36903 9.70349 4.6352C9.70349 4.7162 9.69481 4.80878 9.67746 4.91293C9.6601 5.0113 9.63985 5.11834 9.6167 5.23406C9.59356 5.344 9.56752 5.45683 9.53859 5.57255C9.51544 5.68249 9.49519 5.78375 9.47783 5.87633L9.1133 7.56878H7.35142L7.82878 5.3035C7.84035 5.22828 7.85481 5.15306 7.87217 5.07784C7.88953 4.99683 7.89821 4.9245 7.89821 4.86086C7.89821 4.77406 7.87507 4.70463 7.82878 4.65255C7.78827 4.59469 7.72463 4.56576 7.63783 4.56576C7.53368 4.56576 7.43242 4.60337 7.33406 4.67859C7.24148 4.75381 7.16915 4.82035 7.11708 4.87822L6.54425 7.56878H4.77368L6.00613 1.73633H7.78538L7.22123 4.39218Z" fill="white"/>
<path d="M12.4196 3.74123C13.1081 3.74123 13.6086 3.86274 13.9211 4.10576C14.2509 4.36035 14.4158 4.78274 14.4158 5.37293C14.4158 5.73746 14.355 6.06727 14.2335 6.36237C14.112 6.65167 13.9413 6.8918 13.7214 7.08274C13.2817 7.45306 12.6452 7.63822 11.812 7.63822C11.1003 7.63822 10.5911 7.50224 10.2845 7.23029C9.95465 6.94677 9.78974 6.52149 9.78974 5.95444C9.78974 5.57834 9.86496 5.23696 10.0154 4.93029C10.1716 4.62362 10.3944 4.36903 10.6837 4.16652C11.1061 3.88299 11.6847 3.74123 12.4196 3.74123ZM11.8294 7.04803C11.974 7.04803 12.0984 6.96702 12.2026 6.80501C12.3125 6.643 12.3993 6.44627 12.463 6.21482C12.5266 5.97759 12.5729 5.73457 12.6018 5.48576C12.6365 5.23117 12.6539 5.0113 12.6539 4.82614C12.6539 4.66413 12.6365 4.54262 12.6018 4.46161C12.5729 4.37482 12.5063 4.33142 12.4022 4.33142C12.246 4.33142 12.11 4.41532 11.9943 4.58312C11.8843 4.75092 11.7946 4.95054 11.7252 5.18199C11.6558 5.41344 11.6037 5.65067 11.569 5.89369C11.5401 6.13671 11.5256 6.33344 11.5256 6.48388C11.5256 6.85998 11.6268 7.04803 11.8294 7.04803Z" fill="white"/>
<path d="M14.6557 3.83671C14.8698 3.79042 15.0578 3.73834 15.2198 3.68048C15.3818 3.62262 15.5294 3.55029 15.6625 3.4635C15.8013 3.37671 15.9315 3.26966 16.053 3.14237C16.1803 3.01507 16.3163 2.85884 16.461 2.67369H17.3549L17.1032 3.83671H17.7802L17.6674 4.41822H16.9817L16.6259 6.11067C16.5969 6.24375 16.5738 6.36237 16.5564 6.46652C16.5391 6.57067 16.5304 6.65167 16.5304 6.70954C16.5304 6.82526 16.5709 6.89759 16.6519 6.92652C16.7387 6.95545 16.8978 6.96991 17.1293 6.96991L16.9991 7.56878C16.9586 7.58035 16.8949 7.58903 16.8081 7.59482C16.7271 7.60061 16.6345 7.60639 16.5304 7.61218C16.432 7.62375 16.3279 7.62954 16.2179 7.62954C16.1138 7.63532 16.0212 7.63822 15.9402 7.63822C15.7956 7.63822 15.6538 7.62664 15.5149 7.6035C15.3761 7.58614 15.2517 7.54853 15.1417 7.49067C15.0318 7.42702 14.9421 7.33734 14.8727 7.22161C14.809 7.10589 14.7772 6.94966 14.7772 6.75293C14.7772 6.6835 14.7801 6.59671 14.7859 6.49255C14.7974 6.3884 14.8177 6.27268 14.8466 6.14538L15.2112 4.41822H14.5342L14.6557 3.83671Z" fill="white"/>
<defs>
<linearGradient id="paint0_linear_317_713" x1="2.10833" y1="0.679349" x2="22.5564" y2="6.57955" gradientUnits="userSpaceOnUse">
<stop stop-color="#FF562E"/>
<stop offset="1" stop-color="#FF731B"/>
</linearGradient>
</defs>
</svg>
